<?xml version="1.0" encoding="utf-8"?>
<!-- Generator: Adobe Illustrator 25.0.0, SVG Export Plug-In . SVG Version: 6.00 Build 0)  -->
<svg version="1.1" id="圖層_1" xmlns="http://www.w3.org/2000/svg" xmlns:xlink="http://www.w3.org/1999/xlink" x="0px" y="0px"
	 viewBox="0 0 4661.8 2403" style="enable-background:new 0 0 4661.8 2403;" xml:space="preserve">
<style type="text/css">
	.st0{fill:#FFFFFF;}
</style>
<path class="st0" d="M1048.7,1015.2c-117.3,3.2-234.4,6.5-351.4,9.7c-4.9,56.2-9.8,112.7-14.8,170.2c150.6-2.8,301-5.7,451.9-8.5
	c0,55.3,0,110.1,0,166.4c-9.3,0.8-18.4,2-27.6,2.2c-37,0.9-74,1.8-110.9,2c-65.7,0.4-131.3,0.3-197,0.5c-32.7,0.1-65.3,0.6-98,1
	c-2.3,0-4.6,0.3-8.5,0.7c2.9,4.7,5.1,8.7,7.7,12.4c15.3,21.7,34.8,39.4,55.3,56c50.2,40.5,104.6,74.7,161.1,105.5
	c61.2,33.3,123.9,63.4,190.2,85.1c18.6,6.1,37.6,10.9,57.9,16.7c-15,55.3-37,125-52.2,181.2c-2.8-0.4-4.8-0.6-6.6-1.1
	c-83.3-23.6-159.8-44.6-240.5-81.6c-54.1-19.2-105.2-53.7-149.2-91c-30.6-26-57.3-55.8-82.4-86.9c-18.4-22.8-35.9-46.3-53.8-69.6
	c-1-1.3-2-2.6-3.7-4.6c-0.9,1.5-1.7,2.4-2,3.4c-17.9,53-47.8,98.7-85,139.9c-69.4,76.8-151,136.5-247.3,175.3
	c-33.9,13.6-68.9,22.7-105.9,22.1c-11.6-0.2-23.3-0.5-35-5.5c-7.1-53.8-14-107.7-20.8-162.6c20.9,2.4,40,0.7,58.9-3.8
	c28.6-6.8,54.2-19.9,78.4-36.3c22.7-15.4,43.1-33.6,62.7-52.7c57.1-55.8,108.3-116.7,155.8-180.7c1-1.3,1.8-2.7,2.8-4.1
	c-7.9-2.2-104.5,2.7-186.1,8.3c-61.8,4.2-123.7,6.9-185,10.2c-17.9-49.9-16.4-100.8-12.7-152.8c144.4-7,287.7-13.9,431.1-20.9
	c5.4-8.7,7.4-18.3,8.6-27.7c3.9-31,7.6-62.1,10.2-93.3c1.8-21.9,1.7-43.9,2.3-65.9c0.1-3.2-0.3-6.5-0.5-10.5
	c-89.8,5.2-178.8,10.4-267.9,15.5c-14.1,34.7-35.6,63.7-60.5,90.4c-14.4,15.4-30.2,29.2-47.8,40.7c-13.3,8.7-27.5,14.8-43.5,16.3
	c-5.2,0.5-9.4,0-12.9-5c-24.2-35.1-48.7-70-73-105c-0.4-0.5-0.6-1.2-1.1-2.3c0.7-0.8,1.3-2,2.2-2.7c33.6-25.5,60.2-57.4,83.2-92.4
	c31.7-48.2,54.7-100.5,73.6-154.7c12.8-36.7,24-74,36-111.1c0.8-2.5,1.7-5,2.8-8.4c50.2,7.3,100.1,14.7,149.9,21.9
	c5.7,30.3-10.2,112-31.6,162.7c70.6-4.3,140.6-8.5,211.9-12.8c0.2-4.1,0.4-8,0.4-11.8c0.5-42.6,0.8-85.3,1.4-127.9
	c0.2-12.3,0.8-24.6,1.4-36.9c0.2-4.2,0.8-8.5,1.3-13.5c59.6-1.8,118.4-3.5,177.6-5.2c0.4,1.9,0.9,3.1,1,4.4
	c1.7,24.6,3.6,49.2,5,73.8c0.4,6.3-0.4,12.6-0.7,18.9c-1.4,27.9-2.9,55.8-4.2,83.8c0,0.9,0.4,1.9,0.9,4.1
	c111.6-3.8,223.4-7.7,336.5-11.6C1048.7,908.8,1048.7,961.5,1048.7,1015.2z M66.9,1093.8c7.5,7.7,15.8,7.6,24.3,7.6
	c-3.5-2.3-6.9-4.6-10.5-7c-0.3-5.2-0.6-10.3-0.9-15.4c-0.6-0.2-1.2-0.4-1.8-0.5C74.4,1083.4,70.8,1088.3,66.9,1093.8z M112.3,1710.8
	c3.9,5.9,7.1,10.3,12.8,8.3c3.8-1.3,9.5-1.7,10.4-8.3C127.9,1710.8,121.1,1710.8,112.3,1710.8z M107.3,1111c0.1,1,0.2,2,0.3,3.1
	c5.5,0,11.1,0.3,16.5-0.2c1.8-0.2,3.7-2.4,4.8-4.1c0.4-0.6-1.3-2.6-1.6-3.2C120.2,1108.2,113.7,1109.6,107.3,1111z M416.3,964.6
	c-0.1-0.7-0.2-1.3-0.2-2c-2.5,0.1-4.9,0.3-7.4,0.4c0,0.5,0.1,1.1,0.1,1.6C411.3,964.6,413.8,964.6,416.3,964.6z"/>
<path class="st0" d="M2322.6,1708.7c31.5-29.7,56.4-63,77.6-99c30-51,52.4-105.4,71-161.5c25.7-77.5,44.9-156.7,58-237.3
	c7.3-44.7,14-89.5,19.1-134.4c3.9-34.7,4.8-69.7,7-104.6c0.1-2.2-0.3-4.5-0.5-8c-61.2,0.5-122,1.1-183.5,1.6
	c-7.6-53.1-12.6-105.5-12.1-159c66,0,131.2,0,197.8,0c-0.9-38.6-3.2-76.9-4.7-116c55.5,0,110.4,0,166.4,0
	c0.6,36.1-0.3,72.2-0.7,109.5c4.1,0,7.6,0.1,11.1,0c64.9-2,129.9-4.4,194.8-5.8c93.6-2.1,187.2-4,280.9-4.8
	c52.3-0.4,104.6,1.6,156.9,2.5c3.6,0.1,7.2,0.6,10.4,1c2.5,9.3,2.6,139,0.2,160.6c-109.3,3.2-218.7,4-328.2,6
	c-109.2,1.9-218.4,3.1-328.4,4.5c-0.6,43.7-3.6,73.1-4.2,116c7.5,0,15.7,0.5,23.8-0.1c35.2-2.6,77.6,1,112.9-1.3
	c42.6-2.8,80.4,0.4,123-0.5c75.6-1.6,151.3-1.7,226.9-2c28.6-0.1,57.3,1.1,85.9,1.7c1.6,0,3.2,0.3,5.5,0.6c1,6.7,2,13.2,2.8,19.7
	c3.6,30.4,7.3,60.8,10.6,91.3c0.6,5.4,0,11.3-1.3,16.6c-22.7,91.2-64.5,173.1-121.9,247.1c-19,24.5-38.7,48.4-58.1,72.5
	c-1.8,2.3-3.6,4.6-6,7.7c10,8.4,19.5,16.7,29.3,24.6c35.3,28.7,74.4,51.5,114.2,73.3c32.7,17.9,65.7,35.3,98.6,52.9
	c2.9,1.6,5.7,3.3,9,5.2c-10.8,50.3-21.6,100.3-32.5,150.8c-12,0.9-23-1.2-33.9-3.9c-17.9-4.4-34.8-11.6-50.4-21.4
	c-46.7-29.5-93.4-59.1-139.7-89.4c-35.7-23.3-70.8-47.6-106.6-71.7c-4,4.6-7.4,9.5-11.8,13.4c-12.8,11.2-25.2,22.9-39,32.7
	c-70.5,49.6-145.5,91.3-225,124.5c-9.2,3.8-18.9,6.4-28.4,9.2c-6.1,1.8-10.5,0-14.2-5.9c-25.3-40-50.9-79.7-76.4-119.6
	c-1-1.6-1.8-3.5-2.9-5.6c9.3-2.8,18.2-5.3,27-8.3c23.4-8,45.5-18.7,67.2-30.5c55.1-30.1,107.9-63.5,156.3-103.6
	c9.2-7.6,18.3-15.5,24.9-26.7c-3.3-4.1-6.8-8.1-10-12.3c-14.7-19.7-30-39.1-43.9-59.4c-29.5-43.1-46.9-91.7-60.4-141.7
	c-7.3-27-11.5-30.2-18.2-57.3c-0.9-3.5-2.4-7-3-10.5c-1.3-7.2-5.5-10.9-12.6-12c-10.2-1.5-20.3-3.1-31.4-4.8
	c-1.7,10.5-3.4,20.3-5,30c-20.4,126.9-53.9,226.7-102,346c-15.4,38.1-34,74.5-59.3,107.2c-17,22.1-36.6,41.4-60.7,55.8
	c-15,8.9-31.1,15-48.1,19c-7.2,1.7-12.2,0.4-17.8-4.8c-23-21.7-46.6-42.9-69.9-64.3C2333.9,1719.3,2328.6,1714.3,2322.6,1708.7z
	 M3113.1,1217.2c-74.5-1.8-147.8,8.6-222.4,8.6c0.8,3.5,1.2,6,2,8.5c8.2,26.4,15.7,52.9,24.8,78.9c6.9,19.7,14.9,39.2,24.1,57.9
	c9.8,20.2,25.2,35.7,46.2,45.2c5.5,2.5,10.2,2.7,14.6-1.4c9.5-8.8,19.9-16.9,27.9-26.9c28.9-35.7,50.3-75.8,67.2-118.4
	C3104.2,1252.9,3109.6,1235.9,3113.1,1217.2z M3015.5,881c13.1,4.8,25.4,3.6,33.6-3.4C3031.4,869.1,3024.3,869.9,3015.5,881z
	 M3169.8,1243.6c-6.2,9.6-7.5,18.5-4.6,28.5C3174.1,1263.2,3175.7,1254.3,3169.8,1243.6z M3208.6,830.6c3.8,1,7.2,1.9,11.1,3
	c0-3.2,0-5.9,0-9.4c-3.6,1.5-6.3,2.5-8.9,3.8C3210.1,828.4,3209.6,829.4,3208.6,830.6z"/>
<path class="st0" d="M4636.2,1292.8c1.8,42.4,3.4,82.8,5.2,124.4c-382.5,7-763.9,13.9-1144.8,20.8c-6.6-13.3-13.6-94.4-10.5-120.6
	c6.5-0.6,13.4-1.7,20.2-1.8c53.3-0.8,106.6-1.4,159.9-2c3.3,0,6.6,0,11.2,0c-0.2-32.4-4.9-64-4.6-96.4c-34.3-1.2-67.2,5.4-101.7,4.1
	c-4-89.7-6.2-138.8-5.3-117.2c137.8-6.1,279.1-12.3,402.2-9c1-13.8,0.5-27.2,0.4-41.5c-116,0-230.9,0-346.3,0c0-36.1,0-71.3,0-107.1
	c2.2-0.3,4.4-0.9,6.5-0.8c59,1.4,117.9,0.2,176.9-1.8c52.6-1.9,105.3-2.7,157.9-4c1.6,0,3.3-0.3,4.7-0.5c4.8-12.4,7-45.3,4-61.3
	c-126.2-1.7-252.6-3.5-380.2-5.2c1.8-36.7,3.4-72.2,5.2-108c8.2-4.1,16.9-4.7,25.4-4.8c48-0.9,96-1.5,143.9-1.9
	c19-0.2,38,0.5,57,0.8c3.6,0.1,7.2,0,11.1,0c2-11-0.5-20.7-2.4-30.4c-3.1-15.3-6.7-30.5-9.8-45.8c-1-4.8-0.8-9.9-1.3-16.1
	c46.1-3.1,91.4-6.1,137.2-9.2c3.1,15.6,5.7,30.3,8.9,44.8c2.7,12.3,6.3,24.5,9.1,36.8c2.7,11.8,11.1,16.7,21.8,18.9
	c4.2,0.9,8.6,1.1,12.9,0.9c43.6-2.7,87.1-5.6,130.7-8.4c6.7-0.4,13.3-1,20-0.9c7.3,0.1,12.2-2.8,17-8.4
	c31.1-36.1,62.6-71.9,93.9-107.8c1.9-2.2,4-4.3,6.7-7.1c29.1,23.9,57.8,47.5,87.2,71.6c-10.3,18.2-29.9,43.9-50.4,60.7
	c5.2,0.2,9,0.4,12.8,0.4c82.7,0,165.3,0,248,0c4.3,0,8.5,0,13.4,0c0,38.4,0,75.5,0,114c-140.8,1.7-281.2,3.5-422.9,5.2
	c-1.8,20.6-3.5,40.7-5.3,62.2c6.7,1.2,12.7,3,18.8,3.2c32.6,1.2,65.3,2.8,97.9,2.7c52.6-0.2,105.3-2,157.9-2.7c27-0.4,54,0,80.9,0.2
	c3.6,0,7.2,0.8,11.8,1.4c2.2,35.6,4.3,70.7,6.6,106.8c-6.5,0.4-12,0.9-17.5,0.9c-48.3,0.4-96.7,0.5-145,1.1
	c-45,0.5-90,1.9-134.9,2.2c-22.6,0.2-45.3-0.9-67.9-1.5c-5.6-0.1-11.2-0.5-17.7-0.8c-4.2,12.9-1.6,26-4.7,39.7
	c140.7,5.2,280.5,10.4,419.9,15.6c2.1,8,2.7,95.7,0.9,112.5c-4.4,0.5-9.2,1.5-14.1,1.6c-27,0.8-54,1.3-80.9,2.1
	c-5.2,0.2-10.5,1-16.1,1.5c-3.4,22-6.8,43.3-10.3,65.8C4510.7,1292.8,4572.9,1292.8,4636.2,1292.8z M4310.2,1296.6
	c6.1-26.5,13.1-52.5,18.4-79c-62.6-1.6-123.7-3.2-185.9-4.8c0,26.3,0,52.7,0,79.3C4198,1293.6,4253.5,1295.1,4310.2,1296.6z
	 M3817.3,1296.8c20.3,0,39.5,0.4,58.8-0.1c17.9-0.5,35.9-1.6,53.8-3.3c11.2-1,22.2-3.8,31.5-11c0-20.1,0-39.9,0-60
	c-51.5,0-102.6,0-155.1,0C3810.1,1247.6,3813.7,1272.1,3817.3,1296.8z M3595.1,1133.4c0-5.4,0-10,0-14.9c-3,0-5.5,0-8.7,0
	C3587.2,1124.8,3586.7,1130.8,3595.1,1133.4z M3587,1376.7c0.5,0.6,0.9,1.3,1.4,1.9c1.2-1.1,2.4-2.2,3.6-3.3c-0.3-0.4-0.7-0.9-1-1.3
	C3589.6,1374.9,3588.3,1375.8,3587,1376.7z"/>
<path class="st0" d="M1379.5,1817.2c-4.5-14.6-5.5-28.5-6.3-42.5c-4.2-73.6-1.2-147.2,1.6-220.8c2.8-75.2,6.5-150.4,9.8-225.6
	c0.1-2,0.4-3.9,0.6-6c7.3-3.7,14.9-4.3,22.5-4.7c39.3-1.8,78.5-4.5,117.8-4.8c141.3-1,282.6-1,424-1.7c37-0.2,74-1.2,111-1.6
	c42.3-0.5,84.6-0.6,127-0.9c1.9,0,3.9,0.4,6.6,0.7c0,3.9,0.1,7.5,0,11.1c-2.2,79.2-4.5,158.5-6.7,237.7
	c-2.3,81.6-4.5,163.2-6.8,244.7c-0.4,15.7-0.6,15.7-16.7,18.3c-32.4,5.2-65.1,5.2-97.7,4.8c-78.3-1.1-156.6-2.9-234.9-4.1
	c-102.6-1.5-205.3-2.8-307.9-4c-44-0.5-88-0.6-132-0.8C1387.6,1817.1,1383.9,1817.2,1379.5,1817.2z M1979.4,1424.5
	c-6.3-1-12.4-2.6-18.6-2.9c-25.3-1.2-50.6-2.5-75.9-2.7c-89-0.9-177.9,1.8-266.8,5.1c-14.6,0.5-29.2,1-43.4,1.5
	c-5.3,16.5-7.6,63.7-3.8,76c3.5,0,7.1-0.1,10.8,0c49.3,0.9,98.6,1.6,147.9,2.8c75.6,1.8,151.2,4.2,226.8-0.8
	c7.6-0.5,15.1-1.5,23-2.3C1979.4,1475.7,1979.4,1451.2,1979.4,1424.5z M1984.8,1613.7c-4.6,0-8.1,0-11.7,0c-51,0.4-102,0.8-153,1.4
	c-72.3,0.8-144.6,1.8-216.7,8.4c-11.5,1.1-23.1,1.9-34.7,6.6c-1.6,18.2-3.2,36.2-4.9,54.9c141.3-3.5,281-6.9,421-10.4
	C1984.8,1653.9,1984.8,1634.6,1984.8,1613.7z"/>
<path class="st0" d="M4500.3,1456.7c4.7,10.9,6.1,21.1,6.7,31.4c2,34.6,3.9,69.1,5.3,103.7c2.3,56.6,4.4,113.2,6.3,169.7
	c0.4,10.9-0.1,22-1.7,32.8c-1,6.7-4.2,13.3-7.8,19.1c-4.2,6.8-16.2,20.6-34,22.6c-60,0.8-97.4,3.2-157.3,4.2
	c-92.3,1.5-178.8-1.4-271.1,0c-66,1-134.9,1.9-200.9,3.6c-24.9,0.6-67,0.4-91.9,2.7c-32.2,2.9-55.5,2.7-89.9,2.6
	c-2.3,0.2-4.6,0-8.2,0c-6.7-122.1-11.4-244-11.9-367.5C3888.5,1465.2,4204,1456.7,4500.3,1456.7z M3822.1,1605.2
	c-0.9,26.2-1.5,51.1-2.9,76c-0.4,7.1,1.8,11.7,6.4,16.6c5.2,5.6,11.6,6.2,18.2,6.4c14,0.6,28,1.3,41.9,1
	c91.5-2.3,183.1-4.3,274.6-7.6c53.2-1.9,106.4-6.2,159.5-9.6c13.8-0.9,14.4-1.6,16.3-14.9c3.8-27.2,2.9-54.4,1.9-81.7
	c0-0.8-0.9-1.6-1.6-2.7C4165.4,1594.2,3994.4,1599.7,3822.1,1605.2z"/>
<path class="st0" d="M1826.7,963c-1.6,36.8-3.1,73.6-4.7,111.6c-46,2.6-92.3,5.2-139.1,7.8c0.6,2.2,0.6,3.3,1.1,4
	c21.4,20.2,42.2,44.4,70.6,55.8c17.3,6.9,37.4,21.5,54.9,27.8c1.8,0.7,3.7,1.2,5.6,1.8c-2.7,7.1-75.6,95.5-90.1,110.2
	c-24.9-7.1-76.4-36.7-121.5-78.8c-26-15.7-46.1-45.8-64.5-69.9c-1.4-1.8-2.9-3.5-4.9-5.8c-8.4,25-25,43.7-42.1,61.8
	c-47.9,50.6-101.3,94.4-160.7,131c-13.5,8.3-28.3,14.7-42.6,21.9c-2.9,1.5-6.2,2.4-9.4,3.3c-19,5.4-19.6,5.2-30.3-11.7
	c-16.6-26.2-33.1-52.3-49.7-78.5c-1.7-2.7-3.2-5.6-5.4-9.4c18.9,0.7,33.8-7.5,48.5-15.9c41.7-23.9,78.2-54.3,109.7-90.6
	c11.2-12.9,21.1-26.7,25.7-43.5c0.3-1.2,0.6-2.5,1-4.5c-9.3-2.5-18.6-0.9-27.6-1.2c-9.3-0.3-18.7-0.1-28-0.1c-9.3,0-18.7,0-28,0
	c-9.7,0-19.3,0-29,0c-9.3,0-18.7,0-28,0s-18.7,0-28,0c-9.3,0-18.5,0-29,0c-1.8-37.6-3.5-74.4-5.3-112.3c4.9-0.4,9.1-1,13.3-1.1
	c38-0.2,76-0.2,114-0.5c33-0.3,66-0.6,98.9-1.4c13.6-0.3,27.2-1.8,40.8-3.3c12.8-1.4,13-2.2,14.1-14.5c2.2-23.9,4.8-47.7,7-71.6
	c0.7-7.6,0.9-15.2,1.4-23.7c-9.4-0.6-17.9-1.4-26.4-1.5c-24.3-0.4-48.6-0.5-72.9-0.8c-7.6-0.1-13,3-17.5,9.3
	c-15.2,21-31,41.7-46.5,62.5c-1.6,2.1-3.1,4.3-4.7,6.4c-7.3,9.3-20.5,10.6-29.4,2.9c-22.9-19.9-45.7-39.8-68.5-59.7
	c-2.2-2-9.2-8.2-11.4-10.3c0.5-1.1,0.6-2.3,1.3-2.8c16.5-24.4,35.8-53.6,44.9-74.5c17.7-40.6,29.9-58.9,43.1-101.1
	c6.2-20,13.1-39.8,19.9-59.6c1.6-4.6,4.1-9,6.5-14.4c44.3,21.5,87.9,42.6,132.2,64.1c-4.7,15.3-9.1,29.7-13.3,43.7
	c11.2-0.6,55.6,0.1,64.9-0.2c83.6-2.8,162-3.9,245.6-6.8c2.3-0.1,4.6,0,7.7,0c0.4,2.6,1,5.2,1,7.7c0.1,37,0.1,74,0,110.9
	c0,8.5-0.4,9.1-8.8,12.1c-17.5,6.3-35.9,7.3-54.2,7.6c-15.3,0.2-30.6-0.7-46-1.1c-4-0.1-8,0-12.6,0c-5,34.6-10.1,69.1-11.3,103.5
	c0.7,0.7,0.9,0.9,1.1,1.1c0.2,0.2,0.5,0.6,0.8,0.6c2.3,0.1,4.6,0.3,7,0.3C1687.3,962.1,1756.5,962.6,1826.7,963z"/>
<path class="st0" d="M1865.1,716.7c131.5-10.8,262.9-3,395.4-13.9c0,0,3.1,20.9,3.4,24.6c2.3,37.9,4.2,62.8,5.7,100.7
	c4.6,117.8,6.5,235.7,5.2,353.5c-0.1,5-0.3,10-0.6,15c-0.6,9.1-0.7,10.4-9.9,12.2c-16.9,3.4-34,6.9-51.2,8.3
	c-72.8,5.8-145.7,5.9-218.7,6.6c-32.6,0.3-65.3,0.5-97.9,0.6c-12.6,0.1-13,0.1-15.3-12.7c-2.5-14.1-5.1-28.3-5.7-42.5
	c-2.6-59.5-5-119.1-6.4-178.7c-1.8-75.2-2.7-169.1-3.8-244.3C1865,736.9,1865.1,727.6,1865.1,716.7z M2015,850.7
	c5.4,80,10.7,158.8,16.1,238.5c33.1-0.9,65.6-1.8,98.9-2.7c-2.1-82-4.1-162.7-6.1-243.2C2087,845.8,2051.2,848.2,2015,850.7z"/>
<path class="st0" d="M1197.5,410.5c-6.8-8.8-12.7-16.3-19-24.4c13.5-5.4,26.7-10.1,36.8-20.4c2.5-2.5,4.6-5.4,8.4-9.8
	c-19.2-0.9-36.3,0-53.1-0.6c-2.4-7.3-3-51.4-0.9-64.4c8,0,16.2,0,25,0c2.8,12.6-0.6,25.6,2,38.5c11.2,0,22,0,33.7,0
	c0-15.1,0-29.7,0-45.3c5.9-0.4,11.1-0.7,17.6-1.1c-1.2-3.9-2.2-7.2-3.7-11.8c-27.5,3.4-54.8,6.7-82.9,10.2
	c-2.3-7.4-4.8-15.1-7.5-23.5c17.8-6.1,30.9-18,43.7-30.3c-0.2-0.7-0.5-1.3-0.7-2c-10.7,1.3-21.5,2.7-33.2,4.2
	c-2.6-7.8-5.4-15.8-8.3-24.4c18.9-9.8,30.2-26.8,43-44.8c-23.2,0-44.6,0-67.3,0c-0.2,3.6-0.6,7.5-0.6,11.3c0,76,0,151.9,0,227.9
	c0,3.9,0,7.8,0,12.2c-13.8,0-26.2,0-39.3,0c0-130.7,0-260.8,0-391.4c55.1,0,109.6,0,164.1,0c1.9,7.3,2.6,121.9,0.7,138.7
	c-13.2,0-26.7,0-40.1,0c-0.2,0.6-0.4,1.3-0.5,1.9c3.4,2.3,6.7,4.5,11.3,7.6c-10.1,11.9-19.8,23.4-30.6,36.2
	c8.9-0.4,16.4-0.5,23.8-1.3c2.2-0.3,4.6-2.4,6.2-4.3c4.9-5.4,9.5-11,14.8-17.3c7.3,5.1,14.2,9.9,22,15.4
	c-18.5,20.4-38.1,37.8-59.9,55.2c6.4,1.7,11.4,0.2,16.4-0.2c5-0.4,9.9-0.9,16.2-1.4c-2.2-5.6-4.3-10.6-6.6-16.4
	c7.2-2.1,13.8-4.1,21.6-6.3c7.4,16.2,14.5,31.8,21.8,47.9c-4.5,2.2-8.1,4-11.1,5.5c-0.5,19.8-0.5,39.4-1.7,58.9
	c-1.6,25.6-14.6,44.5-36.6,57.2C1214.9,402.6,1206.3,406.2,1197.5,410.5z M1131,77.6c28.9,0.1,57.3,0.2,86.2-0.1
	c-0.4-9.9,1.2-18.4-1.1-26.6c-19.2-1.8-77.9-1.1-85.1,1C1131,60,1131,68.2,1131,77.6z M1131,130.3c29-0.3,57.4,0.5,85.6-0.5
	c0-8.8,0-16.4,0-24.4c-28.7,0-56.9,0-85.6,0C1131,113.5,1131,121,1131,130.3z"/>
<path class="st0" d="M2279.1,193.7c3.8-10.3,6.5-18.8,10.1-26.9c5.6-12.8,11.7-25.4,18-37.8c2.7-5.3,6.2-10.3,9.9-15
	c15.4-19.4,36.6-24,58.8-12.9c22.2,11.1,33.9,30.1,39.2,53.7c4.5,20,1,39.2-6.9,57.5c-4.8,11.3-10.7,22.2-17.3,32.6
	c-16.8,26.5-36.8,50.6-58.9,72.9c-18.1,18.1-29.1,20.9-51.8,9.4c-49.6-25.1-92-58.6-120.2-107.7c-6.5-11.3-11.4-23.2-13.6-36.2
	c-5.7-32.8,16.9-55.6,49.8-50.4c15.2,2.4,29,8.2,40.5,18.1c11.3,9.8,21.6,20.7,32.2,31.2C2272.1,185.3,2274.9,189,2279.1,193.7z"/>
<path class="st0" d="M1284.6,284.5c-1.6-1.9-4-3.5-4.8-5.7c-2.2-6.3-3.7-12.7-5.7-19.7c16.8-6.8,29.9-18.7,44.5-32.7
	c-13.3-0.2-24.1,2.1-35.8,4.1c-2.7-8.4-5.3-16.4-8-24.5c19.4-10.4,31.2-26.9,43-45.7c-9.4,0-17.3,0-24.8,0
	c-2.5-7.4-3.3-124.1-1.1-139.5c55.7,0,111.4,0,168,0c0.2,3.5,0.5,6.7,0.5,10c0,110.6,0,221.1,0,331.7c0,5.6-0.6,11.3-1.2,16.9
	c-1.5,13.2-8.6,22.7-21.4,26c-10.5,2.8-21.5,4-32.4,5.1c-7.2,0.7-14.5,0.1-22.1,0.1c-4-13.4-7.9-26.7-12-40.5c9.4,0,18.3,0,27.2,0
	c5,0,10,0,15-0.1c4-0.1,6-2.4,6.3-6.3c0.1-2.3,0.2-4.7,0.2-7c0-61.9,0-123.9,0-185.8c0-3.2-0.3-6.5-0.5-10.3c-28.8,0-57,0-86.9,0
	c4.8,3.1,8.5,5.5,13.4,8.7c-9.8,11.6-19.4,22.9-30.2,35.7c12.9-1.1,25.3,3,33.8-9.7c3.1-4.6,7.3-8.6,11.4-13.3
	c7,4.8,13.8,9.5,21.8,15c-18,20.7-38.2,38.1-57.8,57.3c9.7-0.8,19.4-1.6,30.4-2.5c-2.4-5.5-4.4-10.2-6.9-15.9
	c6.8-2.4,13.2-4.7,20.4-7.3c9.3,15.7,16.8,31.4,23.4,48.8c-7.1,3-13.7,5.7-21.2,8.8c-2.3-4.8-4.3-9.1-6.8-14.4
	c-6.2,0.6-12.8,1.2-19.3,2c-16.2,2-32.4,3.9-48.5,6.3c-4.1,0.6-7.9,3-11.9,4.6L1284.6,284.5z M1331.2,77.1c30,0,58.7,0,87.9,0
	c0-9,0-17.4,0-26.1c-29.7,0-58.7,0-87.9,0C1331.2,59.9,1331.2,68.1,1331.2,77.1z M1331.2,129.7c29.9,0,58.7,0,88,0
	c0-8.3,0-16.1,0-24.1c-29.7,0-58.7,0-88,0C1331.2,113.9,1331.2,121.5,1331.2,129.7z"/>
<path class="st0" d="M3177.2,139.8c7.7,1.1,14.2,1.9,21.9,3c-1.8,10.9-3.6,21.3-5.4,32.2c5.9,7.4,12,15.1,18.7,23.4
	c12.4-17.6,16.3-37.1,19.6-57.9c7,0.9,13.8,1.8,20.9,2.7c0.9,11.2-3.4,20.9-5.2,31.5c7.7,9.7,15.7,19.7,25.4,31.8
	c0-21.4,0-40.4,0-60c10.6,0,20.1,0,30.2,0c0,85.4,0,170.4,0,255.9c-10.2,0-19.6,0-29.4,0c-0.3-4.9-0.6-9.2-1-14.3
	c-49.4,0-98.6,0-147.5,0c-2.3-7.7-3.1-226.7-1-242.7c9.3,0,18.8,0,29,0c0,20.5,0,40.4,0,60.2
	C3170.8,187.4,3173.6,164.1,3177.2,139.8z M3153.8,263.1c0,23.9,0,47.3,0,72.7c16.8-20.8,19.4-44.3,23.5-68.3
	c7.4,0.9,14.1,1.8,21.8,2.8c-1.6,9.7-3.2,18.5-4.5,27.3c-0.3,2.2-0.9,5.1,0.1,6.5c5.7,7.6,11.8,14.8,18.3,22.8
	c12.8-18.2,15.8-38.6,19.8-59c7.5,1,13.9,1.9,21.7,3c-1.8,9-3.5,17-4.9,25.1c-0.5,2.8-1.4,6.7-0.1,8.5c7.1,9.4,14.8,18.3,23,28.3
	c0-24.1,0-46.7,0-69.5C3232.5,263.1,3193.4,263.1,3153.8,263.1z M3185.9,199.7c-5.7,10.4-10.3,19.9-18.3,27.4
	c-5-3.6-7.7-9.4-13.8-11.9c0,5.3,0,9.8,0,14.8c39.9,0,79.2,0,119.2,0c0.2-6,0.7-11.3-0.4-18.1c-5.1,5.6-9,9.8-13.2,14.2
	c-6.9-9.8-13.1-18.6-19.8-28c-7.1,10.4-11.6,21-21.3,27.9c-4.5-5.3-8.6-10.1-12.5-14.7c-3.7,2.8-5.9,4.4-8.3,6.2
	C3193.6,211.6,3190.2,206.3,3185.9,199.7z M3168.7,355.6c35.2,0,69.6,0,104,0c0-4.4,0-8.3,0-14.7c-4.9,5.9-8.3,10-12.2,14.7
	c-7.4-10.4-13.6-19.3-20.3-28.7c-7.2,9.5-11.3,20.4-22,27.7c-3.8-4.7-7.5-9.3-11.2-13.9c-3.6,2.6-5.6,4.1-8,5.8
	c-4.5-6.4-8.7-12.2-13.1-18.6C3180.1,337.3,3174.7,345.9,3168.7,355.6z M3153.7,356.3c4.4-0.3,7.7-0.5,13-0.8
	c-4.8-5.1-8.2-8.7-13-13.7C3153.7,347.7,3153.7,351.4,3153.7,356.3z"/>
<path class="st0" d="M3151.4,2226.7c26.4-31.3,40.9-67.2,52.1-106c10,2.1,19.6,4.2,29.9,6.4c-2.2,14.3-8.2,26.5-12.2,39.4
	c7.3,2.4,39.7,2.7,50,0.4c0-16.1,0-32.3,0-49.1c10.1-2.1,19.6-1,29.8-0.8c2.3,16.7-0.3,33.3,1.6,51c31.9,0.9,63.8-0.2,96.5,0.6
	c0,9.6,0,18.6,0,28.9c-31.9,0-63.7,0-96.5,0c-0.6,18.6-1.2,36-1.8,54.9c14,0.1,27.5,0.2,41,0.2c13.7,0,27.3,0,41,0
	c13.6,0,27.3,0,41.8,0c0,9.6,0,18.7,0,29.3c-36.3,0.4-72.7-0.1-110.8,0.3c24.5,52.1,66.1,78.6,119.1,91c-6.4,9.2-12.3,17.6-18.8,27
	c-56.7-13.9-98.4-46.8-124.6-102.1c-24.1,56.6-70.1,83.9-124,102c-6.1-8.4-11.7-16.1-18.1-24.9c3.3-1.3,6.4-2.7,9.6-3.9
	c24.9-9,48.4-20.7,68.6-38.1c14.1-12.2,25-26.7,32.6-43.7c0.8-1.8,1.3-3.7,2.2-6.2c-9.1-2.5-18-0.9-26.8-1.2c-9-0.3-18-0.1-27-0.1
	s-18,0-27,0c-9,0-17.9,0-27.6,0c0-9.9,0-19,0-29.2c38.7,0,77.2,0,115.3,0c4.3-12.2,5.7-39.4,2.9-54.5c-20.5,0-41,0-62,0
	c-9,14.2-18.2,28.8-27.8,43.9C3170.3,2236.8,3161.3,2232,3151.4,2226.7z"/>
<path class="st0" d="M833.7,2336c-6.9,3.4-13.3,6.7-20.5,10.3c-7.7-14.8-15.2-29.1-23-44.2c-8.5,10.9-15.8,21.7-24.5,31
	c-8.8,9.4-19,17.5-29.3,26.7c-5.7-6.2-10.5-11.6-15.5-17c-12.2,6.2-24.3,5.2-36.9,4.8c-1.6-6.7-3-12.7-4.5-18.9c5.3,0,9.9,0,14.5,0
	c4.1,0.1,7.6-1.2,8.4-5.5c1.4-7.4,2.1-14.9,3.3-23.1c-10.4,0-19.2,0-29.1,0c-5.7,19.5-14.5,37.5-33,49.6c-4.9-5.5-9.6-10.9-15-17.1
	c21.9-16.8,26.6-40.8,28.5-67.2c-10,0-19.2,0-29.2,0c0-7,0-13.1,0-20.4c13.9,0,27.6,0,42.7,0c-2.4-5-4-8.4-5.8-12.1
	c1.3-1.4,2.5-2.7,4.8-5.1c-11.3,0-21.4,0-31.2,0c-2.5-7.7-3.3-69.4-1.2-86.2c10,0,20.1,0,31.1,0c2.1-8.4,3.9-16,6.1-24.8
	c9.2,0.8,18.3,1.6,28.2,2.4c-0.4,7.8-5.6,13.6-7.1,21.8c11.2,0,22,0,33.4,0c0,25,0,48.9,0,72.8c0.7,0.1,1.4,0.3,2.2,0.4
	c15.8-29.7,21.5-62.5,27.7-96.2c8.2,1.2,15.9,2.3,24.7,3.5c-2.7,14.1-5.2,27.4-7.9,41.6c19.1,0,37.7,0,56.8,0c0,8.4,0,15.9,0,23.8
	c-3.5,0.7-7,1.3-9.2,1.7c-5.4,23.1-10.5,45.5-15.7,67.8c-1.6,6.7-5.6,13.5-4.9,19.9c0.7,6.1,6.2,11.5,9.4,17.4
	c6.2,11.4,12.4,22.8,18.5,34.3C831.6,2330.4,832.4,2332.9,833.7,2336z M727.6,2278.7c1.1,1.2,2,1.7,1.9,2.1c-1,17.5-2,35-3.1,53.3
	c2.9-2.2,5.9-4.2,8.6-6.4c15.2-12.4,26.9-27.6,36-44.9c2.7-5.1,2.5-9.1-0.7-13.8c-4.9-7.1-9.2-14.6-13.9-21.9
	c-2.3-3.5-4.7-6.9-7.2-10.5c-2.9,3.3-5,5.7-7,8c-6.1-4.6-11.7-8.8-17.3-13c-1.5-1.2-2.8-2.8-4.6-3.5c-3.1-1.3-25.2,0.2-29.8,1.8
	c3.1,5.2,6.2,10.2,9.6,15.8c13,0,25.9,0,38.6,0c0,7,0,13.1,0,20.1c-19.4,0-37.9,0-57.2,0c-0.3,4.7-0.6,8.5-0.9,13
	C697.1,2278.7,712.7,2278.7,727.6,2278.7z M768.2,2188.6c-2.5,7.1-4.8,13.9-7.4,20.7c-2.5,6.5-5.3,13-8.6,21
	c6.4-2.2,10.7-3.7,15.6-5.5c5.3,7.7,10.5,15.2,16,23.1c6.2-14.8,12-46,11.2-59.4C786.5,2188.6,778,2188.6,768.2,2188.6z
	 M704.7,2193.9c-15.5,0-29.9,0-44.5,0c0,5.1,0,9.5,0,14c15.2,0,29.6,0,44.5,0C704.7,2203,704.7,2198.8,704.7,2193.9z M659.8,2174.6
	c15.6,0,30,0,44.7,0c0-4.8,0-8.9,0-12.9c-11.3-2.1-37.5-1.7-44.7,0.6C659.8,2166.1,659.8,2170,659.8,2174.6z"/>
<path class="st0" d="M3002.6,2233.1c2,20.9,3.8,40,5.6,59.1c0.8,0.1,1.5,0.2,2.3,0.4c7.9-14,12.8-29.2,18.3-45.8
	c7.7,3.6,15,7,22.8,10.6c-1.4,4.2-2.4,7.7-3.7,11c-7.6,20.7-17.3,40.4-29.3,58.9c-2.8,4.3-3.9,8.1-2,13c2.3,5.9,3.7,12.1,6.3,17.8
	c1.3,3,4.2,5.3,7.1,8.7c8.8-12,5.8-25.1,9.5-37.5c6.3,4.9,12.3,9.4,18.5,14.3c-1.4,14-4.5,27.5-10.5,40.3c-1.1,2.4-2.5,4.7-4.1,6.8
	c-6.8,9.1-16.1,11.5-25.2,4.7c-5.7-4.2-10.3-10.3-14.2-16.3c-3.5-5.4-5.5-11.9-8.7-18.9c-13.6,13.4-25.7,27.6-42,38
	c-5.4-4.9-10.7-9.7-16.6-15c6.5-5.6,12.6-10.8,20.3-17.5c-7-0.4-11.5-0.6-16.6-0.9c-0.8-2.2-1.6-4.6-2.5-7.3c-11,0-21.9,0-34.1,0
	c-0.3,6.8-0.6,13.6-1,20.9c-7.6,0-14.8,0-22.7,0c0-43.2,0-86.3,0-130.9c27.3-0.2,54.4,0,82-0.1c2.7,9.2,1.1,18.2,1.4,27
	c0.3,9.3,0.1,18.7,0.1,28c0,9,0,18,0,27c0,8.9,0,17.7,0,26.6c0.7,0.3,1.4,0.5,2.2,0.8c7.8-7.8,15.1-16.2,21.1-25.7
	c1.1-1.7,0.5-4.5,0.3-6.8c-3.2-28.8-6.5-57.5-9.9-86.3c-0.1-1.3-0.6-2.5-1.1-4.5c-35.7,0-71.3,0-107.6,0c0-8.3,0-15.8,0-24.4
	c6.4-0.3,12.8-0.7,19.9-1c1.8-11-3.4-20.9-4.5-32.4c6.2-1.1,12.6-2.2,20.4-3.5c3.1,12.3,6,24,9,36c4.3,0,8.3,0,13.7,0
	c2.8-11.5,5.7-23.2,8.9-35.9c7.1,1.2,13.9,2.3,22.1,3.7c-2.9,10.6-5.7,20.7-8.7,31.4c8.3,2.3,16.4,1,25.8,0.8
	c-0.9-30.2-1.7-59.9-2.6-90.4c8.9,0,16.7,0,25.6,0c0.9,29.7,1.9,59.5,2.8,90.5c18.3,0,35.8,0,53.9,0c0,8.7,0,16.1,0,24.8
	C3038.2,2233.1,3021.4,2233.1,3002.6,2233.1z M2903.8,2336.4c11.7,0.7,23.3,0.6,34.9,0.1c0-8.5,0-15.6,0-23.7
	c-11.9,0-23.2-0.4-34.9,0.2C2903.8,2321.3,2903.8,2328.1,2903.8,2336.4z M2904,2291.1c11.9,0,23.2,0,34.7,0c0-7.6,0-14.4,0-21.5
	c-11.8,0-23.1,0-34.7,0C2904,2277.1,2904,2283.9,2904,2291.1z"/>
<path class="st0" d="M2275.9,2160c-66.5,0-131.7,0-198.2,0c-0.6,26.7-0.2,53.2-0.3,79.7c-0.1,26.7,0,53.3,0,80c0,26.6,0,53.2,0,80.6
	c-9.5,0-18.2,0-27.6,0c0-89.3,0-178.4,0-268.1c84.9,0,169.4,0,254.5,0c0.2,2.9,0.6,5.4,0.6,8c0,74.6,0.1,149.3,0,223.9
	c0,25-6.8,32.7-31.8,35.5c-11.2,1.3-22.5,1.3-34,1.8c-3.4-9.8-6.5-18.8-9.9-28.5c8.3,0,15.9,0,23.4,0c5,0,10,0.2,15-0.2
	c6.7-0.4,7.7-1.7,8.2-8.6c0.1-1.7,0-3.3,0-5c0-62.6,0-125.3,0-187.9C2275.9,2167.7,2275.9,2164.1,2275.9,2160z"/>
<path class="st0" d="M2999.7,248.6c0,12.6,0,23.5,0,35.1c-58.9,0-117.1,0-176.4,0c0,42.6,0,84.4,0,126.7c-14.3,0-27.5,0-41.8,0
	c0-42.2,0-83.9,0-126.5c-59.7,0-118.2,0-177.8,0c-0.8-11.9-0.5-23-0.3-35c59.3,0,117.9,0,177.5,0c0-8.4,0-15.9,0-24.1
	c14.5,0,27.9,0,42.2,0c0,7.6,0,14.8,0,23.3c15.2,1,29.7,0.3,44.2,0.5c14.7,0.1,29.3,0,44,0s29.3,0,44,0
	C2969.7,248.6,2984.3,248.6,2999.7,248.6z"/>
<path class="st0" d="M1875.6,277.8c13.5,6,25.9,11.6,39.2,17.5c-1.9,25.4-2.8,51.7-12.4,76.6c-8.2,21.2-24.8,31.1-46.5,31.5
	c-35.6,0.7-71.3,0.4-106.9,0c-7.9-0.1-15.9-1.9-23.5-4.2c-18.4-5.5-25.6-19.9-28-37.6c-0.8-5.9-1.1-12-1.1-17.9
	c-0.1-68.6,0-137.2,0-205.8c0-3,0-5.9,0-10.2c14.4-0.7,28.1-0.3,43.2-0.3c0,4.8,0,8.7,0,12.6c0,65.3,0,130.6,0,195.8
	c0,4.6,0.1,9.4,0.8,13.9c1.5,9.5,5.6,13.1,15.3,14.1c3.3,0.3,6.7,0.3,10,0.3c25.3,0,50.7-0.3,76,0.1c17,0.3,24.6-5.6,27.5-22.4
	c3.1-18,4.2-36.3,6.1-54.5C1875.3,284.5,1875.4,281.5,1875.6,277.8z"/>
<path class="st0" d="M4018.8,2362.5c13.6,0,25.6,0,37.4,0c2.4-6.9,3.3-115.9,0.9-131.3c-25.3,0-50.8,0-76.6,0
	c-2.6-9-1.1-17.2-1.2-26.8c15.4-0.9,30.6-0.3,45.7-0.4c15-0.1,30,0,45,0c15.3,0,30.7,0,46,0c14.9,0,29.9,0,45,0
	c2.4,9.1,1,17.2,1.1,26.5c-25.2,0-49.7,0-74.9,0c0,15.9,0,30.7,0,46.8c11.2,0.7,22.7,0.2,34.2,0.3c11.3,0.1,22.6,0,34.7,0
	c0,8.4,0,16.2,0,24.7c-6.8,2.4-14.5,0.8-21.9,1.1c-8,0.3-16,0.1-24,0.1c-7.6,0-15.1,0-23.3,0c0,20.1,0,38.9,0,59.3
	c9.4,0,18.6,0.1,27.7,0.1c9,0,18,0,27,0c9.3,0,18.6,0,28.7,0c0,9.1,0,17.5,0,26.5c-70.5,0-140.6,0-211.4,0c0-8.6,0-16.8,0-26
	c10.5,0,21,0,32.8,0c1.3-33.1-0.3-65.2,0.9-97.8c8.9,0,17.1,0,26.2,0C4018.8,2297.8,4018.8,2329.6,4018.8,2362.5z"/>
<path class="st0" d="M2743.9,42.9c11.4,0,22.3,0,34.4,0c3-14.3,5.9-28.1,9.1-42.9c12.4,2.2,24.6,4.3,37.6,6.6
	c-4.4,11.9-8.5,23.1-13.1,35.6c16.6,1.9,32.5,0,48.1,1.2c2.2,7.3,2.7,157.7,0.6,169.9c-38.7,0-77.5,0-116.3,0
	C2742.1,206.2,2741.6,56.1,2743.9,42.9z M2778.9,113c14.1,0,27,0,39.9,0c1.6,0,3.1-0.5,4.5-0.8c2-11,1.6-29.6-0.6-36.7
	c-14.4,0-28.9,0-43.8,0C2778.9,88,2778.9,99.8,2778.9,113z M2824,143.8c-15.6,0-30.1,0-44.8,0c0,13,0,25.3,0,37.7
	c15.3,0,29.7,0,44.8,0C2824,168.9,2824,156.8,2824,143.8z"/>
<path class="st0" d="M3756.4,2273.7c0,42.1,0,83.6,0,125.7c-9.7,0-18.9,0-28.6,0c-0.5-3.2-0.9-6-1.4-9.4c-44.5,0-88.6,0-133.4,0
	c-0.7,2.9-1.5,6-2.5,10.4c-4.3,0-8.9,0-13.5,0c-4.3,0-8.5,0-13.5,0c0-42.8,0-84.5,0-126.2
	C3570.9,2272.2,3744.5,2271.7,3756.4,2273.7z M3592.3,2341.8c0,8.3,0,15.4,0,22.5c12.7,2.2,127.7,1.6,134-0.5c0-7.3,0-14.4,0-21.9
	C3681.5,2341.8,3637.4,2341.8,3592.3,2341.8z M3592.2,2318.6c45.3,0,89.7,0,134.2,0c0-7.8,0-14.9,0-21.8
	c-12.9-1.9-126.6-1.4-134.2,0.6C3592.2,2304.1,3592.2,2311,3592.2,2318.6z"/>
<path class="st0" d="M3916.6,2401.4c-8.5-7.8-14.9-13.6-22-20.1c20.2-22.2,31.9-48.5,37-80.1c-13,7.3-24.6,13.9-37.1,20.9
	c-3.3-9.4-6.2-17.7-9.4-26.6c16.8-8.3,33.1-16.4,49.9-24.7c0-12.3,0-24.4,0-37.6c-8.1,4-15.4,7.6-22.2,11c-7.6-19.2-15-38-22.8-57.8
	c6.2-3.2,12.9-6.5,20.2-10.3c10.7,16.8,17.5,34.6,23.5,52.8c0.7-0.1,1.4-0.3,2.1-0.4c0-25.8,0-51.5,0-78.4c36,0,70.8,0,107.4,0
	c-3.4-9.8-6.3-18.1-9.6-27.6c9.6-2.1,18.8-4.1,28.9-6.2c4.8,11.3,9.2,21.9,14.2,33.6c30.8,0,62,0,93.7,0c0,8.9,0,16.7,0,26
	c-23,0.2-45.9,0.1-68.7,0.1c-22.7,0-45.3,0-68,0c-22.9,0-45.8,0-69.6,0c-0.2,4.6-0.5,8.1-0.5,11.7c-0.3,27.3,0.2,54.6-0.9,81.9
	c-1.1,29.4-6.5,58.2-17.9,85.5c-6.1,14.5-14.1,27.9-24.4,39.9C3919.1,2396.8,3918.1,2399,3916.6,2401.4z"/>
<path class="st0" d="M3520.7,149.6c-8.3,11-16.1,21.3-24.6,32.6c-12.5-10.2-22.5-23-34.7-36.3c0,9.7,0,17.8,0,25.5
	c-8.5,2.3-85.6,2.6-96.4,0.5c0-6.9,0-14.1,0-23.7c-11.9,14-22.2,26.1-33,38.8c-9.5-10.8-18-20.5-26.8-30.5
	c43.9-43.4,73.5-95.7,95.5-153.9c11.1,4.3,21.6,8.4,33.1,12.9c-1.5,4.4-2.7,8.5-4.3,12.3c-2.3,5.3-1.7,9.8,1.3,14.9
	c22.9,38.7,50.3,73.6,84.9,102.6C3517.2,146.6,3518.7,147.9,3520.7,149.6z M3411.3,71.5c-12.6,21.8-24.8,42.9-37.1,64.2
	c16.4,2.2,72.2,1.4,78-1C3438.7,113.9,3425.2,93,3411.3,71.5z"/>
<path class="st0" d="M2911,102.2c12.3-1.1,22.5-1.7,32.7-3.1c2.4-0.3,5.2-2.8,6.6-5.1c4.6-7.7,8.7-15.7,13-23.6
	c1.6-2.9,3.1-5.7,5.2-9.5c10.6,5.8,20.7,11.2,31.5,17.1c-23.5,39.6-49.7,75.8-81.2,111.4c15.6-1.5,28.8-2.7,43.6-4.1
	c-2.5-9.3-4.7-17.7-7.2-27.1c8.6-3.1,17.3-5.6,27.2-7.1c8.2,23.6,14.7,47,19.1,71.7c-9.7,2.9-18.6,5.5-28.2,8.4
	c-1.7-6.2-3.2-11.8-5.1-18.8c-29.5,4.4-58.7,8.8-88.5,13.2c-3.2-9.9-6.6-20.2-10-30.4c17.3-11.1,46.3-44.4,55.9-64.6
	c-8.8,1.3-16.9,2.2-24.9,3.6c-8.1,1.4-16.2,3.2-24.6,4.9c-3.5-10.2-6.9-20.2-10.4-30.5c10.2-6.6,16-16.8,21.8-26.9
	c12.2-21.1,22.4-43.1,30.2-66.2c0.9-2.8,2.1-5.6,3.5-9.5c11.1,3.5,22,6.8,34.1,10.6C2943.6,46.5,2928.9,73.8,2911,102.2z"/>
<path class="st0" d="M3346.9,312.8c7.8-7.4,15.5-14.7,24.2-22.9c11.2,10.6,22.2,21.1,33.8,32.2c20.2-23.2,37.1-48,53.3-75.8
	c-43.3-0.9-85,0-127.7-0.5c-1.6-11.8-0.5-23.2-0.7-35.7c4.7,0,8.2,0,11.8,0c42.6,0,85.3,0,127.9,0c4.6,0,9.2-0.6,15.1-1.1
	c7.2,5.9,15.4,12.6,24.2,19.8c-21,43-48.6,81.1-78.4,118.8c11.7,12.7,23.3,25.4,35.1,38.3c-9.5,9.1-18.3,17.6-27,25.9
	C3408.7,379.5,3378.3,346.7,3346.9,312.8z"/>
<path class="st0" d="M2606.4,192.3c24.7-15.9,38.3-40.5,55.1-62.5c-0.4-0.7-0.8-1.5-1.2-2.2c-13.9,2.4-27.8,4.8-43,7.4
	c-3.1-9-6.5-18.9-10.1-29c10.3-6.9,16.4-16.8,22.2-26.9c11.8-20.9,21.8-42.6,29.6-65.4c0.7-2.2,1.6-4.3,2.8-7.4
	c10.7,3.9,21.1,7.7,32.5,11.9c-11.1,28.8-25.5,54.9-42.2,81.7c10.2-0.8,18.6-1.2,27-2.3c2.1-0.3,4.4-2.9,5.6-5
	c5.1-9,9.9-18.1,14.8-27.2c1.4-2.6,2.9-5.1,4.8-8.3c10,5.6,19.5,10.8,30,16.6c-22.4,39.1-47.9,75.1-77.8,110.6
	c15.7-0.4,29.1-2.4,43-4.6c-2.2-10-4.1-19.1-6.3-28.8c8.5-4.3,17.9-4.4,27.7-6.9c7.2,24.9,12.5,49.7,16.6,76.2
	c-9.9,2.4-19.3,4.7-29.2,7.1c-1.3-7-2.3-12.8-3.5-19.5c-29.7,3.8-58.8,7.9-88,14.9C2613.1,212.1,2609.7,202.1,2606.4,192.3z"/>
<path class="st0" d="M3199.6,99.3c0-32.1,0-63.3,0-95.4c11.5-1.4,22.2-0.8,34.3-0.4c0,12.1,0,23.5,0,36c23.4,0,45.6,0,68.4,0
	c0,10.8,0,20.7,0,31.6c-22.2,0-44.3,0-67.5,0c-1.3,10.1-1,19.1-0.3,28.8c27.1,0,53.4,0,80.4,0c0,10.8,0,21,0,31.1
	c-7.1,2.2-194.1,2.6-204.5,0.3c0-10,0-20.2,0-31.4c9.1,0,17.6,0,27.4,0c0-24.5,0-47.9,0-71.8c11.2,0,21.1,0,32.4,0
	c0,23.7,0,47.2,0,71.1C3180.4,99.3,3189.2,99.3,3199.6,99.3z"/>
<path class="st0" d="M1137.4,2400c-2.8-8-5.1-14.9-7.8-22.9c11.2-0.3,21.8-0.6,33-0.9c0-8.5,0-15.7,0-23.5c-29.6,0-59.1,0-88.9,0
	c-4.3,18.1-9.2,35.7-22.5,50.4c-6.6-6.1-13.1-12.1-19.2-17.7c4.5-9.9,9.5-19.3,12.9-29.2c4.7-13.6,5.4-28,5.6-42.4
	c0.2-16.6,0-33.3,0-50c0-3.3,0-6.5,0-10.5c47,0,93.1,0,139.9,0c0.2,3.1,0.5,6,0.5,8.9c0,35.3,0,70.6,0,105.9c0,2,0,4-0.1,6
	c-0.8,15.8-6.5,22.4-21.9,24.7c-5.9,0.9-12,0.9-17.9,1.2C1146.7,2400.1,1142.4,2400,1137.4,2400z M1077.5,2293.2
	c28.9,0,57,0.1,85.2,0c0-6.6,0-11.8,0-17.6c-28.6,0-56.6,0-85.2,0C1077.5,2281.3,1077.5,2286.5,1077.5,2293.2z M1077.2,2330.6
	c10.8,2,77.8,1.7,86-0.5c0-2.4,0.1-5,0-7.6c-0.1-2.8-0.5-5.7-0.7-8.3c-17.8-1.9-78-1.2-85.3,1
	C1077.2,2320.1,1077.2,2325,1077.2,2330.6z"/>
<path class="st0" d="M614.9,2190.3c-6.6,22.8-13,44.7-19.4,66.9c8.7,3,18.2-2.5,26.1,5.6c-2.9,26.6-10.7,52.9-19.5,78.6
	c22.4,18,46.7,28.5,75.1,30.3c38,2.3,75.9,0.5,113.8-1.7c15.6-0.9,31.1-2.4,47.8-3.8c-2.8,9.8-5.3,18.9-8,28.4
	c-10,0.6-19.9,1.4-29.8,1.6c-41.3,1.1-82.5,3.8-123.8,0.9c-24-1.7-46.5-7.9-66.4-22c-4.3-3.1-8.8-6-13.5-8.4
	c-6.1-3.2-9-2.7-12.6,3.1c-4.2,6.7-7.6,14-11.2,21.1c-1.6,3.2-2.8,6.6-5,11.8c-6.9-9.3-12.9-17.4-19.6-26.5
	c7.8-9,15.4-17.7,22.9-26.6c2.5-3,5.5-6.1,6.5-9.7c5.2-17.2,9.9-34.5,14.6-51.8c0.3-1.2-0.1-2.5-0.3-4.5c-9.8,0-19.4,0-30.6,0
	c7.1-23,13.9-45,21.1-68.2c-9.8,0-18.3,0-27.5,0c0-8.8,0-16.6,0-25.1C574.8,2190.3,593.9,2190.3,614.9,2190.3z"/>
<path class="st0" d="M2587.7,2153.1c-21.5,0-41.4,0-61.8,0c0-8.4,0-15.8,0-24c50.8,0,101.2,0,152.2,0c0.3,2,0.7,3.6,0.6,5.1
	c-1.8,28.9-3.5,57.8-5.7,86.7c-0.6,7.9-2.3,15.8-4.1,23.6c-2.8,12-10.7,18.7-22.7,20.9c-12.6,2.3-25.2,1.5-37.9,0.4
	c-2.4-7.9-4.6-15.5-7.2-24c7.2,0,14-0.2,20.7,0c17.8,0.6,20.7-0.9,22.8-18.5c2.7-22.8,4.2-45.7,6.3-69.9
	c-12.8-0.6-24.2-0.2-36.6-0.3c-1.1,6.5-1.8,12.6-3.3,18.7c-2.9,12.3-5.3,24.8-9.6,36.6c-11.9,33.2-33.1,55.4-66,70.4
	c-5.2-6.6-10.4-13.3-16.4-20.8c20.4-9.6,38.8-21.6,50.4-43.2c-14.3-12.9-28.5-25.7-43.8-39.5c5.4-4.6,10.6-9.1,16.9-14.4
	c11.4,9.2,23.7,19.1,37.5,30.3C2582.8,2178,2585.1,2166.4,2587.7,2153.1z"/>
<path class="st0" d="M1104.5,2140.9c0-8.6,0-15.5,0-23.1c9.6,0,18.4,0,28.3,0c0,7.3,0,14.5,0,22.9c23.8,0,46.6,0,70,0
	c0,7.7,0,14.1,0,21.5c-23,0-45.6,0-68.9,0c0,5.3,0,9.7,0,15.2c21,0,41.8,0,63.2,0c0,7.2,0,13.4,0,20.7c-21,0-41.8,0-63.3,0
	c0,6,0,10.8,0,16.9c24,0,48.1,0,72.8,0c0,7.8,0,14.3,0,21.5c-57,0-113.8,0-171.4,0c0-6.8,0-13.5,0-21.1c22.8,0,45.3,0,68.6,0
	c0-5.7,0-10.5,0-16.7c-19.1-0.6-38.2,0.2-57.7-0.5c0-7.3,0-13.5,0-20.6c19.4,0,38.2,0,57.8,0c0-5.1,0-9.2,0-14.8
	c-21.4-0.9-42.9,0.2-64.9-0.6c0-7.1,0-13.3,0-20.7c10.7-1.2,21.6-0.4,32.4-0.5C1081.9,2140.8,1092.5,2140.9,1104.5,2140.9z"/>
<path class="st0" d="M3572.6,2141.5c27.2,0,52.7,0,78.8,0c0,7.7,0,14.5,0,22.2c-13.8,1.9-27.4-0.3-41.5,1.4c0,7.6,0,15.1,0,23.8
	c15.9,0,32,0,48.8,0c0,8.3,0,15.4,0,23.6c-17.7,0-35.1,0-52.6,0c-0.2,0.7-0.5,1.4-0.7,2.1c4.9,4.6,11.4,6.8,17,10.3
	c5.6,3.5,11.5,6.7,17.2,10.1c6,3.6,11.8,7.3,19.1,11.8c-6.9,6.7-13.2,12.8-20,19.3c-14.7-10.6-28.9-20.8-43.9-31.7
	c-15.1,21.3-35.2,35.5-58.6,45.9c-6.2-5.9-12.4-11.8-19.6-18.6c24-11.1,46.4-22.5,58.4-48.6c-18.7,0-36.1,0-54.4,0
	c0-8.1,0-15.3,0-23.4c5.2-0.3,10.4-0.5,18.2-0.9c-7.4-4.8-12.9-8.4-19.3-12.6c15.8-17.5,26.6-37.8,33.5-60.7
	c8.7,1.7,16.7,3.4,25.8,5.2C3576.8,2127.5,3575,2133.6,3572.6,2141.5z M3580.9,2164.5c-5.9,0-10.8-0.2-15.7,0.1
	c-1.8,0.1-4.4,0.5-5.3,1.8c-5.1,7.1-9.8,14.4-15.3,22.8c13.1,0.1,24.8,0.4,36.4-0.2C3580.9,2180.3,3580.9,2173.1,3580.9,2164.5z"/>
<path class="st0" d="M2238.1,2339.5c-32,0-63.4,0-95.8,0c-0.4,7.3-0.7,13.8-1.1,20.9c-8.5,0-16.6,0-24.8,0
	c-2-7.4-2.4-109.5-0.3-120.5c40.4,0,80.8,0,121.3,0C2239.5,2246.7,2240.2,2321.9,2238.1,2339.5z M2211.2,2264.8c-23.6,0-46,0-68.8,0
	c0,16.9,0,33,0,49.5c23.2,0,45.6,0,68.8,0C2211.2,2297.7,2211.2,2281.5,2211.2,2264.8z"/>
<path class="st0" d="M3782.2,2250.9c-37.2,0-73.7,0-110.8,0c0-36.7,0-72.7,0-109.4c37.1,0,73.6,0,110.8,0
	C3782.2,2177.7,3782.2,2213.8,3782.2,2250.9z M3698.6,2167.3c-0.3,19.9-0.2,38.6-0.1,57.3c19.3,0,37,0,55.4,0
	c0-19.5,0.1-38.3-0.1-57.3C3734.8,2167.3,3717.3,2167.3,3698.6,2167.3z"/>
<path class="st0" d="M1666.5,2270.7c0-10.7,0-20.6,0-30.9c93.5,0,186.3,0,279.1,0c2.2,6.8,2.6,18,0.9,30.9
	C1853.5,2270.7,1760.4,2270.7,1666.5,2270.7z"/>
<path class="st0" d="M2525.9,2371.3c-6.2-2.3-11.7-4.4-18.4-6.9c-0.3,6.6-0.5,12.3-0.8,19c-22.7,0-44.9,0-67.7,0
	c-0.7,4.7-1.3,8.5-2,12.9c-7.4,0-14.9,0-23,0c0-34.4,0-68.4,0-103.1c30.8,0,61.3,0,92.7,0c0,20.4,0,40.6,0,60.8
	c0.7,0.1,1.4,0.3,2.1,0.4c9.2-17.7,12-37.6,17-57.8c6.7,1.9,12.9,3.6,20,5.6C2542.1,2326.4,2537.8,2349.6,2525.9,2371.3z
	 M2480.9,2316.7c-14.4,0-28.2,0-41.9,0c-2.1,10.5-1.8,35.5,0.4,42.8c13.8,0,27.5,0,41.5,0C2480.9,2344.8,2480.9,2331,2480.9,2316.7z
	"/>
<path class="st0" d="M2239,1446.5c-6.2-1.8-7.1-4.8-7.8-7.6c-2.7-10.6-6-21.1-7.4-31.8c-2.8-21.6-4.4-43.2-6.5-64.8
	c-0.3-3.1-1.1-6.3-1.3-9.4c-0.1-3.6-0.4-7.2,0.5-10.7c1.9-6.8,7.7-9.8,18.6-10c6-0.1,12-0.2,18,0.1c14.5,0.6,21.5,5.6,19.3,14.6
	c-5.4,22.2-11.4,44.3-16.8,66.5c-3.1,12.7-5.6,25.4-8.6,38.1c-0.8,3.3-1.8,6.6-3.4,9.8C2242.8,1443.2,2240.6,1444.8,2239,1446.5z"/>
<path class="st0" d="M1897.2,159.5c13.4-5.3,25.7-10.1,39-15.3c25.5,53.6,45.7,108.2,59.2,166.2c-13.9,5.9-27.3,11.5-41.9,17.7
	C1941,269.8,1921.5,214.5,1897.2,159.5z"/>
<path class="st0" d="M1663,164.8c-8.2,61.3-17.6,120.9-36.7,179.5c-14.2-5.9-27.5-11.5-41.9-17.5c19.2-54.9,30.5-110.9,37.4-169.4
	C1635.5,159.9,1648.7,162.2,1663,164.8z"/>
<path class="st0" d="M1022.5,2292.5c0,30.5,0,60,0,90.5c-21.3,0-42.1,0-63.2,0c-0.6,4.5-1.1,8-1.6,12.2c-7.7,2.3-15.5,1.2-23.9,0.5
	c0-34.5,0-68.5,0-103.2C963.4,2292.5,992.5,2292.5,1022.5,2292.5z M959.5,2315.5c-1.9,12.1-1.5,36.1,0.6,43.1c12.2,0,24.4,0,37.4,0
	c0-7.5,0-14.4,0-21.4c0-7.2-0.1-14.3-0.1-21.8C984,2315.5,972.1,2315.5,959.5,2315.5z"/>
<path class="st0" d="M1535.6,2169.5c-3.8-0.2-6.4-0.4-9.1-0.4c-29.7,0-59.3,0.1-89-0.1c-6-0.1-9.7,1.7-13,6.8
	c-7.3,11.5-15.6,22.3-26.1,31.9c-7.1-6-13.9-11.7-21.5-18.1c21.8-20,36.5-44.7,46.8-72.6c9,2.3,17.3,4.4,26.5,6.7
	c-2.4,6.8-4.5,12.7-6.8,19.2c3.1,0.3,5.6,0.7,8.1,0.6c33,0,66-0.4,98.9,0c7.2,0.1,14.3,2.4,22.7,3.9c-7.3,18.9-15.3,36.1-24.4,53.8
	c-8-1.7-15.7-3.3-24.5-5.2C1528.2,2186.8,1531.7,2178.5,1535.6,2169.5z"/>
<path class="st0" d="M1284.3,284.7c1.9-0.4,3.8-1.1,5.7-1.1c7.9-0.1,15.9-0.1,24.9-0.1c0,15.6,0,30.4,0,45.8c12.2,0,23.3,0,35.5,0
	c0-12.8,0-25.3,0-38.5c9.9,0,18.6,0,28,0c0,25.6,0,50.7,0,77.2c-4.7,0-9.2,0-13.7,0c-4.3,0-8.5,0-13.5,0c-0.5-4.2-0.9-7.7-1.4-11.9
	c-11.3,0-22.4,0-34.5,0c0,16.3,0,32.4,0,49.2c-10.2,0-19.4,0-29.8,0c-0.1-3.3-0.4-6.8-0.4-10.3c0-33.6,0-67.2,0-100.8
	c0-3.3-0.3-6.6-0.4-9.9C1284.6,284.5,1284.3,284.7,1284.3,284.7z"/>
<path class="st0" d="M1865,111.4c-10.8,9.8-21.3,19.4-32.3,29.4c-35-36.3-75.7-67.8-117.7-97.9c9.4-9.4,18.2-18.3,27-27.1
	C1760,21.9,1848,90,1865,111.4z"/>
<path class="st0" d="M1497,2334.6c8.8,3.4,16.8,6.5,26.1,10.1c-0.7,13.1-1.6,27.1-10.4,38.6c-3.3,4.4-9.3,7.4-14.7,9.4
	c-5.2,1.9-11.1,2.2-16.7,2.2c-25.3,0.2-50.6,0.3-75.9-0.1c-8.2-0.1-16.6-1.4-24.6-3.3c-10.4-2.4-16.6-9.3-18.2-20.1
	c-0.4-2.6-1.1-5.3-1.2-7.9c-0.1-18-0.1-35.9-0.1-55c9.7-1.3,19.1-0.9,29.5-0.2c0,6.6,0,12.5,0,18.4c0,9.7-0.1,19.3,0,29
	c0.1,9.3,1.5,10.8,10.9,11.8c4,0.4,8,0.7,12,0.7c19.6,0.1,39.3,0,58.9,0c2.7,0,5.3-0.2,8-0.3c7.4-0.4,11.6-4.3,13.1-11.4
	c0.6-2.9,1.1-5.9,1.5-8.8C1495.9,2343.4,1496.4,2339.2,1497,2334.6z"/>
<path class="st0" d="M1364.8,2292.9c-3.1,0.5-5,1-6.9,1c-6.6,0.1-13.2,0-20.9,0c0-30.2,0-59.6,0-89.1c-0.6-0.3-1.3-0.6-1.9-1
	c-7.9,7.1-15.7,14.2-24.1,21.8c-6.2-7.8-12-15-18.4-23.2c29.8-23.9,54.1-52.5,72.3-86.9c8.7,3,16.7,5.7,26.1,9
	c-5.6,9.3-10.4,17.6-15.3,25.7c-2.1,3.4-4.2,6.8-6.6,9.9c-3.3,4.1-4.3,8.6-4.3,13.9c0.2,35.9,0.1,71.9,0.1,107.8
	C1364.8,2285.6,1364.8,2289.2,1364.8,2292.9z"/>
<path class="st0" d="M2727.4,296.9c10.9,4.4,22,8.8,34.5,13.8c-3.6,4-6.3,7.6-9.5,10.7c-28.1,28.3-61.5,48.7-97.9,64.4
	c-11,4.7-22.3,8.6-33.3,12.8c-9.4-12-18.2-23.2-27.7-35.3C2642.5,350.5,2688.7,332.1,2727.4,296.9z"/>
<path class="st0" d="M2848.5,319.3c8.6-9.1,16.4-17.3,24-25.3c20.6,6.2,108.9,59.4,127.6,77.1c-8.5,9.8-17.1,19.7-26,30
	C2934.8,369.8,2892.8,344.1,2848.5,319.3z"/>
<path class="st0" d="M2811.4,2383.5c-0.3,4.6-0.5,8.2-0.8,12.6c-6.8,0-13.5,0-20.8,0c0-34.3,0-68.3,0-103c23.6,0,46.8,0,70.7,0
	c0,29.5,0,58.9,0,89.5C2844.6,2383.9,2828.4,2382.5,2811.4,2383.5z M2838.5,2359.7c0-15.3,0-29.4,0-43.5c-9.5,0-18.2,0-26.8,0
	c0,14.9,0,29,0,43.5C2820.9,2359.7,2829.4,2359.7,2838.5,2359.7z"/>
<path class="st0" d="M2546.3,630.4c1.5-7.1,2.7-14.3,4.6-21.3c1.7-6.2,4.7-8,11.1-7.2c2.9,0.4,5.9,1.3,8.5,2.7
	c22.5,11.3,46,19.2,71,22.4c5.9,0.8,11.6,2.8,17.3,4.6c2.8,0.9,5.5,2.5,7.9,4.1c3.7,2.5,7.2,5.5,6.5,10.4c-0.8,5.2-5.5,6.6-9.7,7.1
	c-12.5,1.7-25.1,3.2-37.6,4.2c-14.9,1.3-29.9,1.6-44.8,3.1C2558.2,663,2547,653.5,2546.3,630.4z"/>
<path class="st0" d="M2551.7,2290.4c8.2,0,15.4,0,23.7,0c0.2,3.9,0.6,7.4,0.6,10.9c0.1,17.3,0,34.7,0,52c0,3-0.1,6,0.2,9
	c0.7,6.8,1.9,8.4,8.5,8.6c11.3,0.4,22.7,0.3,34,0.1c5.9-0.1,8.5-2.7,9.7-9.4c1.1-5.9,1.4-11.9,1.9-17.9c0.3-3.3,0.5-6.6,0.8-11.1
	c4.2,1.7,7.7,3.3,11.3,4.7c3.4,1.4,6.8,2.6,10.7,4.1c0.4,13.2-1.1,25.9-6,38.1c-3.4,8.5-9.7,13.8-18.9,13.9c-19,0.2-38,0.5-56.9-0.5
	c-12.4-0.6-18.4-7.5-20-19.8c-0.3-2.3-0.3-4.7-0.3-7c0-23,0-46,0-69C2551.1,2295.3,2551.4,2293.3,2551.7,2290.4z"/>
<path class="st0" d="M2514.5,2166.9c0,8.8,0,15.9,0,23.6c-36.3,0-72.1,0-108.9,0c-0.1-3.6-0.3-7.1-0.4-10.7c-0.1-3.6,0-7.3,0-12.3
	c15.8-0.6,31.3,0,48.3-0.4c-6.1-14.2-11.6-27.2-17.4-41c8.1-2.9,15.7-5.7,24.5-8.8c6.6,13.7,12.9,26.7,19.7,40.8
	c-6.4,2.8-11.7,5.1-17,7.4c0.1,0.5,0.1,0.9,0.2,1.4C2480.1,2166.9,2496.8,2166.9,2514.5,2166.9z"/>
<path class="st0" d="M2099.8,2187.4c51.4,0,102.2,0,153.8,0c0,7.7,0,15.1,0,23.3c-51.3,0-102.3,0-153.8,0
	C2099.8,2203.1,2099.8,2195.9,2099.8,2187.4z"/>
<path class="st0" d="M1031.6,2167.1c0,8.5,0,15.5,0,22.3c-7.4,2.1-94.2,2.6-105.9,0.5c0-7,0-14.2,0-22.2c15.9,0,31.4,0,48.1,0
	c-2.4-15.4-9.2-28.3-14-43c8.2-2.4,16-4.7,23.5-6.9c7.6,12.3,14.9,30.8,16,40.9c-6.2,2.3-12.6,4.7-19.1,7c0,0.5,0.1,1,0.1,1.4
	C997,2167.1,1013.7,2167.1,1031.6,2167.1z"/>
<path class="st0" d="M1075.4,1394.1c13.6-0.6,27.3-1.1,40.9-1.8c7.9-0.4,11.8,1.9,14.7,9.2c3.1,7.8,2.8,15.7-0.3,23.4
	c-2.8,6.8-8.3,10.8-15.6,10.4c-9.3-0.6-18.7-1.4-27.6-3.8c-18.3-4.9-36.4-10.6-54.5-16.4c-4-1.3-8-3.6-11-6.5
	c-4.2-3.9-3.4-9.1,2-11.3c5.2-2.1,10.9-3.4,16.4-3.7c11.6-0.5,23.3-0.2,35-0.2C1075.4,1393.7,1075.4,1393.9,1075.4,1394.1z"/>
<path class="st0" d="M1.3,1696.1c0-4,0-7.9,0-11.9c0.1-10.1,0.1-10.6,9.5-13.5c7.3-2.3,14.7-4.1,22.3-5.2
	c10.5-1.5,15.6,2.1,18.1,12.4c1.5,6.1,2.1,12.4,2.7,18.7c1.8,18.5,3.6,37,5,55.5c0.4,4.9,0,10-1,14.8c-1.4,6.5-6.1,7.9-10.8,3
	c-3.1-3.2-5.5-7.5-7.3-11.7c-5.1-11.5-10.2-23.1-14.4-35C21.1,1711,13.5,1702.1,1.3,1696.1z"/>
<path class="st0" d="M1469.1,2178.4c8.7,0,16.9,0,24.9,0c2.4,7.2,3.1,99.8,0.9,113.9c-8.4,0-16.9,0-25.4,0
	C1467.5,2285.5,1466.9,2191.7,1469.1,2178.4z"/>
<path class="st0" d="M4661.1,757.1c0.3,4.1,0.8,8.2,0.8,12.3c-0.1,12.1-0.4,24.3-0.7,36.4c-0.1,5,0.7,10.3-5.5,13
	c-1.3,0.6-1.5,3.4-2.4,5.1c-1.2,2.3-2.1,4.7-3.7,6.6c-8.7,10-16.8,8.4-20.9-4.3c-1-3-1.8-6.2-2.2-9.3c-1.4-13.7-3-27.3-3.7-41
	c-0.6-11.7,3.6-16.9,14.9-20.2C4645.1,753.5,4652.6,752.2,4661.1,757.1z"/>
<path class="st0" d="M2873.5,2171c0-8,0-14.6,0-21.9c11.8-2.7,23.8,0.1,36.9-1.9c-3.3-7.8-6.4-14.9-9.8-23.1
	c4.1-1.2,7.7-2.4,11.4-3.4c3.5-1,6.9-1.9,11.3-3.1c5,10.1,9.8,19.8,15,30.4c8.6,0,17.5,0,27.1,0c0,8,0,15.1,0,22.9
	C2934.6,2171,2904.5,2171,2873.5,2171z"/>
<path class="st0" d="M3541.6,1460.6c17.1,2.5,34.3,4.6,51.3,7.7c10.6,1.9,16.1,8.6,15.5,16.6c-0.7,9.4-9.9,20.5-18.7,20.7
	c-5.7,0.1-11.8-1.5-17.2-3.7c-10.4-4.2-20.4-9.6-30.7-14.1c-6.9-3-13-6.9-17.4-13c-4.7-6.5-2.7-11.7,5.1-13c3.9-0.7,8-0.5,12-0.7
	C3541.5,1460.9,3541.6,1460.7,3541.6,1460.6z"/>
<path class="st0" d="M1514.7,2312.5c8.6-3.4,16.5-6.5,25.2-9.8c14.3,22,26.3,44.5,34.1,70.1c-9.4,3.8-17.9,7.2-27,10.8
	c-4.9-12.3-9.3-24.4-14.5-36C1527.3,2336.2,1521.2,2325.2,1514.7,2312.5z"/>
<path class="st0" d="M2413.8,2231.4c0-6.7,0-13.6,0-21.9c30.8-0.4,61.5-0.1,92.7-0.2c2.6,7.5,1.6,14.6,1,21.6
	C2500.1,2233.3,2424.2,2233.6,2413.8,2231.4z"/>
<path class="st0" d="M2567.5,1769.6c-0.2-9.7,4.3-17,10.3-19.5c6.8-2.8,13.4-1.2,18.5,5.4c3.3,4.2,5.7,8.9,8.7,13.3
	c6.4,9.7,13.1,19.2,19.4,29c3.4,5.3,6.3,10.9,8.8,16.7c0.9,2,0.8,6-0.5,7.1c-1.5,1.2-5.1,1-7.2,0.1c-4.5-2-9-4.4-12.8-7.6
	c-13.2-11.1-26.4-22.3-39-34C2570.3,1776.9,2568.7,1771.8,2567.5,1769.6z"/>
<path class="st0" d="M932.9,2208.1c30.4,0,59.8,0,89.8,0c0,7.4,0,14.3,0,22.3c-29.8,0.8-59.5,0.1-89.8,0.4
	C932.9,2222.7,932.9,2215.9,932.9,2208.1z"/>
<path class="st0" d="M1323,2388.6c-9.4-4.6-17.9-8.7-26-12.6c10.2-22.6,19.9-44.3,30.1-67c7.7,3.2,15.8,6.5,24.7,10.2
	C1343.4,2343.1,1334.9,2365.9,1323,2388.6z"/>
<path class="st0" d="M2507.4,2251.9c0,6.7,0,13.5,0,21.1c-31.1,0-61.9,0-93.4,0c0-6.9,0-13.7,0-20.6
	C2420.6,2250.1,2495.3,2249.6,2507.4,2251.9z"/>
<path class="st0" d="M1022.8,2249.8c0,7.4,0,14.2,0,21.6c-30,0-59.4,0-89.4,0c0-7.4,0-14.2,0-21.6
	C963.4,2249.8,992.9,2249.8,1022.8,2249.8z"/>
<path class="st0" d="M1406.5,2273.7c-7.8-6.3-14.4-11.7-21.5-17.5c16.6-15.1,29-32.7,38.1-54c8.7,2.3,17.2,4.5,26.8,7
	C1439.2,2234,1425.1,2254.9,1406.5,2273.7z"/>
<path class="st0" d="M1509.7,2212.1c7.2-3.4,14.3-6.8,22.5-10.6c14.9,18,27.7,37.1,38,59.2c-7.7,5.2-15.7,8.9-23.3,12.6
	C1534.6,2252.9,1522.5,2233.1,1509.7,2212.1z"/>
<path class="st0" d="M2866.7,2169c0,7.8,0,14.7,0,22.1c-28.9,0-57.3,0-86.4,0c0-7.3,0-14.3,0-22.1
	C2809,2169,2837.4,2169,2866.7,2169z"/>
<path class="st0" d="M1474.3,2336.2c-7.8,4.5-15.2,8.8-22.3,12.9c-14.2-18-28-35.6-42.1-53.6c6.7-3.6,13.7-7.4,20.3-11
	C1442.4,2292.1,1466.5,2320.1,1474.3,2336.2z"/>
<path class="st0" d="M2860.5,2209.9c0,7.9,0,14.7,0,22.2c-23.6,0-46.7,0-70.5,0c0-7.4,0-14.5,0-22.2
	C2813.4,2209.9,2836.5,2209.9,2860.5,2209.9z"/>
<path class="st0" d="M2644.9,2290.3c6.3-2.2,12.5-4.3,19.3-6.7c11.5,20.7,20.9,41.7,27.4,64.8c-7.5,2.9-14.2,5.5-21,8.2
	C2662.2,2334.7,2653.8,2313.2,2644.9,2290.3z"/>
<path class="st0" d="M2860.7,2251.7c0,7.2,0,13.7,0,20.2c-7.1,2.3-57.8,2.8-70.7,0.8c0-6.7,0-13.5,0-20.3
	C2796.7,2250.2,2847.4,2249.6,2860.7,2251.7z"/>
<path class="st0" d="M3051.2,2187.4c-8.2,3.4-15.5,6.4-22.7,9.3c-7.6-18-14.9-35.3-22.7-53.9c6.5-2.6,13.4-5.4,21-8.5
	C3036.6,2151.4,3044.8,2168.2,3051.2,2187.4z"/>
<path class="st0" d="M569.7,2125.4c8.7-2.5,15.8-4.6,23.9-6.9c5.3,17,10.3,33.1,15.7,50.3c-8.1,2.9-15.8,5.6-24.6,8.7
	C579.7,2160.2,574.9,2143.5,569.7,2125.4z"/>
<path class="st0" d="M2628.8,2310.4c-7.5,5.3-13.1,9.3-18.9,13.5c-11-15.6-21.8-30.9-33-46.7c5.5-3.5,11-7.1,17.6-11.3
	C2606,2280.7,2617,2295,2628.8,2310.4z"/>
<path class="st0" d="M2800.9,2125.5c6.7-2.7,13-5.2,20.6-8.2c7.2,13.1,14.1,25.7,21.6,39.4c-7.9,3.8-14.5,7-21.6,10.4
	C2814.6,2153.3,2808,2139.8,2800.9,2125.5z"/>
<path class="st0" d="M3015.5,881c8.8-11.2,15.8-11.9,33.6-3.4C3041,884.6,3028.7,885.9,3015.5,881z"/>
<path class="st0" d="M3169.8,1243.6c5.9,10.6,4.3,19.6-4.6,28.5C3162.3,1262.1,3163.7,1253.3,3169.8,1243.6z"/>
<path class="st0" d="M3208.6,830.6c1-1.2,1.4-2.2,2.2-2.6c2.6-1.3,5.3-2.3,8.9-3.8c0,3.5,0,6.1,0,9.4
	C3215.8,832.5,3212.5,831.6,3208.6,830.6z"/>
<path class="st0" d="M3587,1376.7c1.3-0.9,2.6-1.8,3.9-2.7c0.3,0.4,0.7,0.9,1,1.3c-1.2,1.1-2.4,2.2-3.6,3.3
	C3587.9,1378,3587.5,1377.4,3587,1376.7z"/>
</svg>
